<svg width="21" height="20" viewBox="0 0 21 20" fill="none" xmlns="http://www.w3.org/2000/svg">
<g clip-path="url(#clip0_205_62)">
<path d="M14.4775 0.0100088C14.435 -0.0374912 12.9038 0.0287588 11.5713 1.47501C10.2388 2.92001 10.4438 4.57751 10.4738 4.62001C10.5038 4.66251 12.3738 4.72876 13.5675 3.04751C14.7613 1.36626 14.52 0.0587588 14.4775 0.0100088ZM18.62 14.6763C18.56 14.5563 15.7138 13.1338 15.9788 10.3988C16.2438 7.66251 18.0725 6.91251 18.1013 6.83126C18.13 6.75001 17.355 5.84376 16.5338 5.38501C15.9308 5.06157 15.2634 4.87627 14.58 4.84251C14.445 4.83876 13.9763 4.72376 13.0125 4.98751C12.3775 5.16126 10.9463 5.72376 10.5525 5.74626C10.1575 5.76876 8.98253 5.09376 7.71878 4.91501C6.91003 4.75876 6.05253 5.07876 5.43878 5.32501C4.82628 5.57001 3.66128 6.26751 2.84628 8.12126C2.03128 9.97376 2.45753 12.9088 2.76253 13.8213C3.06753 14.7325 3.54378 16.2263 4.35378 17.3163C5.07378 18.5463 6.02878 19.4 6.42753 19.69C6.82628 19.98 7.95128 20.1725 8.73128 19.7738C9.35878 19.3888 10.4913 19.1675 10.9388 19.1838C11.385 19.2 12.265 19.3763 13.1663 19.8575C13.88 20.1038 14.555 20.0013 15.2313 19.7263C15.9075 19.45 16.8863 18.4025 18.0288 16.2788C18.4625 15.2913 18.66 14.7575 18.62 14.6763Z" fill="black"/>
<path d="M14.4775 0.0100088C14.435 -0.0374912 12.9038 0.0287588 11.5713 1.47501C10.2388 2.92001 10.4438 4.57751 10.4738 4.62001C10.5038 4.66251 12.3738 4.72876 13.5675 3.04751C14.7613 1.36626 14.52 0.0587588 14.4775 0.0100088ZM18.62 14.6763C18.56 14.5563 15.7138 13.1338 15.9788 10.3988C16.2438 7.66251 18.0725 6.91251 18.1013 6.83126C18.13 6.75001 17.355 5.84376 16.5338 5.38501C15.9308 5.06157 15.2634 4.87627 14.58 4.84251C14.445 4.83876 13.9763 4.72376 13.0125 4.98751C12.3775 5.16126 10.9463 5.72376 10.5525 5.74626C10.1575 5.76876 8.98253 5.09376 7.71878 4.91501C6.91003 4.75876 6.05253 5.07876 5.43878 5.32501C4.82628 5.57001 3.66128 6.26751 2.84628 8.12126C2.03128 9.97376 2.45753 12.9088 2.76253 13.8213C3.06753 14.7325 3.54378 16.2263 4.35378 17.3163C5.07378 18.5463 6.02878 19.4 6.42753 19.69C6.82628 19.98 7.95128 20.1725 8.73128 19.7738C9.35878 19.3888 10.4913 19.1675 10.9388 19.1838C11.385 19.2 12.265 19.3763 13.1663 19.8575C13.88 20.1038 14.555 20.0013 15.2313 19.7263C15.9075 19.45 16.8863 18.4025 18.0288 16.2788C18.4625 15.2913 18.66 14.7575 18.62 14.6763Z" fill="black"/>
</g>
<defs>
<clipPath id="clip0_205_62">
<rect width="20" height="20" fill="white" transform="translate(0.5)"/>
</clipPath>
</defs>
</svg>
