<svg width="393" height="519" viewBox="0 0 393 519" fill="none" xmlns="http://www.w3.org/2000/svg">
<circle cx="395" cy="28" r="125" fill="white"/>
<circle cx="-7" cy="216" r="125" fill="white" fill-opacity="0.5"/>
<path d="M168 76.7448V31.2695C168 29.7747 166.42 28.8082 165.089 29.489L-33 130.818L-232.911 233.079C-233.579 233.421 -234 234.109 -234 234.86V400.793C-234 402.478 -232.044 403.407 -230.737 402.344L167.263 78.2957C167.729 77.9159 168 77.3463 168 76.7448Z" fill="#1C274C"/>
<path d="M225.906 154.476L614.906 352.081C615.577 352.422 616 353.111 616 353.864V514.811C616 516.493 614.05 517.424 612.743 516.366L223.743 201.846C223.273 201.466 223 200.895 223 200.291V156.259C223 154.767 224.575 153.8 225.906 154.476Z" fill="#1C274C"/>
</svg>
