<svg width="23" height="15" viewBox="0 0 23 15" fill="none" xmlns="http://www.w3.org/2000/svg">
<path d="M22.2192 7.20891C22.1878 7.13793 21.4268 5.44977 19.7351 3.75801C17.4809 1.50383 14.6337 0.3125 11.5 0.3125C8.36624 0.3125 5.51909 1.50383 3.26491 3.75801C1.57316 5.44977 0.808585 7.14062 0.780734 7.20891C0.739867 7.30083 0.71875 7.4003 0.71875 7.5009C0.71875 7.60149 0.739867 7.70097 0.780734 7.79289C0.812179 7.86387 1.57316 9.55113 3.26491 11.2429C5.51909 13.4962 8.36624 14.6875 11.5 14.6875C14.6337 14.6875 17.4809 13.4962 19.7351 11.2429C21.4268 9.55113 22.1878 7.86387 22.2192 7.79289C22.2601 7.70097 22.2812 7.60149 22.2812 7.5009C22.2812 7.4003 22.2601 7.30083 22.2192 7.20891ZM11.5 13.25C8.7346 13.25 6.3187 12.2446 4.31878 10.2627C3.49819 9.44664 2.80005 8.51609 2.24609 7.5C2.7999 6.48381 3.49805 5.55324 4.31878 4.7373C6.3187 2.75535 8.7346 1.75 11.5 1.75C14.2654 1.75 16.6813 2.75535 18.6812 4.7373C19.5034 5.55305 20.2031 6.48361 20.7584 7.5C20.1106 8.7093 17.2886 13.25 11.5 13.25ZM11.5 3.1875C10.6471 3.1875 9.81328 3.44042 9.10409 3.91429C8.39491 4.38815 7.84216 5.06167 7.51576 5.84968C7.18936 6.63768 7.10396 7.50478 7.27035 8.34133C7.43675 9.17787 7.84748 9.94628 8.45059 10.5494C9.05371 11.1525 9.82212 11.5632 10.6587 11.7296C11.4952 11.896 12.3623 11.8106 13.1503 11.4842C13.9383 11.1578 14.6118 10.6051 15.0857 9.8959C15.5596 9.18671 15.8125 8.35293 15.8125 7.5C15.8113 6.35662 15.3566 5.26041 14.5481 4.45192C13.7396 3.64342 12.6434 3.18869 11.5 3.1875ZM11.5 10.375C10.9314 10.375 10.3755 10.2064 9.90273 9.89048C9.42994 9.57457 9.06144 9.12555 8.84384 8.60021C8.62624 8.07488 8.5693 7.49681 8.68023 6.93912C8.79117 6.38142 9.06498 5.86914 9.46706 5.46707C9.86913 5.06499 10.3814 4.79117 10.9391 4.68024C11.4968 4.56931 12.0749 4.62624 12.6002 4.84385C13.1255 5.06145 13.5746 5.42994 13.8905 5.90274C14.2064 6.37553 14.375 6.93138 14.375 7.5C14.375 8.2625 14.0721 8.99376 13.5329 9.53293C12.9938 10.0721 12.2625 10.375 11.5 10.375Z" fill="black" fill-opacity="0.7"/>
</svg>
