<svg width="20" height="18" viewBox="0 0 20 18" fill="none" xmlns="http://www.w3.org/2000/svg">
<path d="M9.99996 8.18001C8.89951 8.18001 7.95774 7.78801 7.17462 7.00401C6.39151 6.22001 5.99996 5.27867 5.99996 4.18001C5.99996 3.07956 6.39151 2.13734 7.17462 1.35334C7.95774 0.571119 8.89951 0.180008 9.99996 0.180008C11.1004 0.180008 12.0422 0.571119 12.8253 1.35334C13.6084 2.13734 14 3.07956 14 4.18001C14 5.27956 13.6084 6.2209 12.8253 7.00401C12.0422 7.78712 11.1004 8.17912 9.99996 8.18001ZM0.666626 17.82V15.6267C0.666626 15.0765 0.826626 14.5618 1.14663 14.0827C1.46751 13.6027 1.89863 13.2302 2.43996 12.9653C3.69863 12.3618 4.95774 11.9093 6.21729 11.608C7.47774 11.3058 8.73863 11.1547 9.99996 11.1547C11.2622 11.1547 12.5231 11.3058 13.7826 11.608C15.0422 11.9102 16.3008 12.3627 17.5586 12.9653C18.1008 13.2302 18.532 13.6027 18.852 14.0827C19.1728 14.5618 19.3333 15.0765 19.3333 15.6267V17.8213L0.666626 17.82ZM1.99996 16.4867H18V15.6253C18 15.3302 17.9048 15.0525 17.7146 14.792C17.5235 14.5325 17.2595 14.3129 16.9226 14.1333C15.8257 13.6018 14.6942 13.1947 13.528 12.912C12.3635 12.6285 11.1875 12.4867 9.99996 12.4867C8.81329 12.4867 7.63729 12.6285 6.47196 12.912C5.30574 13.1947 4.17418 13.6018 3.07729 14.1333C2.73951 14.3129 2.47552 14.5325 2.28529 14.792C2.09507 15.0525 1.99996 15.3307 1.99996 15.6267V16.4867ZM9.99996 6.84667C10.7333 6.84667 11.3613 6.58534 11.884 6.06267C12.4066 5.54001 12.6675 4.91245 12.6666 4.18001C12.6666 3.44667 12.4053 2.81867 11.8826 2.29601C11.36 1.77334 10.7324 1.51245 9.99996 1.51334C9.26663 1.51334 8.63863 1.77423 8.11596 2.29601C7.59329 2.81779 7.3324 3.44579 7.33329 4.18001C7.33329 4.91334 7.59463 5.5409 8.11729 6.06267C8.63996 6.58445 9.26751 6.84579 9.99996 6.84667Z" fill="#1C274C"/>
</svg>
