<svg width="25" height="24" viewBox="0 0 25 24" fill="none" xmlns="http://www.w3.org/2000/svg">
<g clip-path="url(#clip0_205_59)">
<path fill-rule="evenodd" clip-rule="evenodd" d="M21.8624 14.7576C21.8624 14.7576 23.8028 16.674 24.2828 17.5608C24.2921 17.5736 24.2994 17.5878 24.3044 17.6028C24.5 17.9304 24.548 18.1872 24.452 18.3768C24.29 18.69 23.7416 18.8472 23.5556 18.8604H20.126C19.8872 18.8604 19.3904 18.798 18.7856 18.3804C18.3236 18.0576 17.864 17.526 17.4188 17.0064C16.754 16.2348 16.1792 15.5652 15.5972 15.5652C15.5237 15.565 15.4507 15.5772 15.3812 15.6012C14.9408 15.7404 14.3816 16.368 14.3816 18.0396C14.3816 18.5628 13.9688 18.8604 13.6796 18.8604H12.1088C11.5736 18.8604 8.78719 18.6732 6.31639 16.068C3.28879 12.8784 0.569586 6.47999 0.543186 6.42359C0.373986 6.00959 0.729186 5.78399 1.11319 5.78399H4.57639C5.04079 5.78399 5.19199 6.06479 5.29759 6.31679C5.41999 6.60599 5.87359 7.76279 6.61759 9.06239C7.82239 11.1768 8.56279 12.0372 9.15439 12.0372C9.26553 12.0375 9.3748 12.0085 9.47119 11.9532C10.244 11.5284 10.1 8.76839 10.064 8.19959C10.064 8.08919 10.0628 6.96719 9.66679 6.42479C9.38359 6.03599 8.90119 5.88479 8.60959 5.82959C8.68759 5.71679 8.85319 5.54399 9.06559 5.44199C9.59479 5.17799 10.5512 5.13959 11.5004 5.13959H12.0272C13.0568 5.15399 13.3232 5.21999 13.6976 5.31479C14.4512 5.49479 14.4656 5.98319 14.3996 7.64639C14.3804 8.12159 14.36 8.65679 14.36 9.28679C14.36 9.42119 14.354 9.57119 14.354 9.72359C14.3312 10.5768 14.3012 11.538 14.9036 11.9328C14.9817 11.9815 15.0719 12.0072 15.164 12.0072C15.3728 12.0072 15.998 12.0072 17.6936 9.09719C18.4376 7.81199 19.0136 6.29639 19.0532 6.18239C19.0868 6.11879 19.1876 5.93999 19.31 5.86799C19.3971 5.82166 19.4946 5.79852 19.5932 5.80079H23.6672C24.1112 5.80079 24.4124 5.86799 24.4712 6.03599C24.5696 6.30839 24.452 7.13999 22.592 9.65519C22.2788 10.074 22.004 10.4364 21.7628 10.7532C20.0768 12.966 20.0768 13.0776 21.8624 14.7576Z" fill="#00B0FB"/>
</g>
<defs>
<clipPath id="clip0_205_59">
<rect width="24" height="24" fill="white" transform="translate(0.5)"/>
</clipPath>
</defs>
</svg>
